<?xml version="1.0" encoding="UTF-8"?>
<svg width="12px" height="12px" viewBox="0 0 12 12" version="1.1" xmlns="http://www.w3.org/2000/svg" xmlns:xlink="http://www.w3.org/1999/xlink">
    <title>切片</title>
    <g id="V2.0.1" stroke="none" stroke-width="1" fill="none" fill-rule="evenodd">
        <g id="客服" transform="translate(-866.000000, -350.000000)" fill="#616C7B" fill-rule="nonzero">
            <g id="12*12/删除" transform="translate(866.000000, 350.000000)">
                <path d="M11.3202225,2.2156875 L8.3451825,2.2156875 L8.3451825,1.5273675 C8.3451825,0.6921675 7.6655025,0.0124875 6.8303025,0.0124875 L4.8092625,0.0124875 C3.9740625,0.0124875 3.2943825,0.6921675 3.2943825,1.5273675 L3.2943825,2.2156875 L0.5079825,2.2156875 C0.2293425,2.2156875 0.0039825,2.4410475 0.0039825,2.7196875 C0.0039825,2.9983275 0.2293425,3.2236875 0.5079825,3.2236875 L1.3331025,3.2236875 L1.3331025,9.3300075 C1.3331025,10.4647275 2.2561425,11.3870475 3.3901425,11.3870475 L8.2595025,11.3870475 C9.3942225,11.3870475 10.3165425,10.4640075 10.3165425,9.3300075 L10.3165425,3.2236875 L11.3195025,3.2236875 C11.5981425,3.2236875 11.8235025,2.9983275 11.8235025,2.7196875 C11.8235025,2.4410475 11.5988625,2.2156875 11.3202225,2.2156875 Z M4.3023825,1.5273675 C4.3023825,1.2480075 4.5299025,1.0204875 4.8092625,1.0204875 L6.8310225,1.0204875 C7.1103825,1.0204875 7.3379025,1.2480075 7.3379025,1.5273675 L7.3379025,2.2156875 L4.3023825,2.2156875 L4.3023825,1.5273675 Z M9.3092625,9.3292875 C9.3092625,9.9081675 8.8383825,10.3783275 8.2602225,10.3783275 L3.3908625,10.3783275 C2.8119825,10.3783275 2.3418225,9.9074475 2.3418225,9.3292875 L2.3418225,3.2236875 L9.3099825,3.2236875 L9.3099825,9.3292875 L9.3092625,9.3292875 Z" id="形状"></path>
                <path d="M4.4708625,4.7616075 C4.1922225,4.7616075 3.9668625,4.9869675 3.9668625,5.2656075 L3.9668625,8.3486475 C3.9668625,8.6272875 4.1922225,8.8526475 4.4708625,8.8526475 C4.7495025,8.8526475 4.9748625,8.6272875 4.9748625,8.3486475 L4.9748625,5.2656075 C4.9748625,4.9869675 4.7495025,4.7616075 4.4708625,4.7616075 Z M7.1219025,4.7616075 C6.8432625,4.7616075 6.6179025,4.9869675 6.6179025,5.2656075 L6.6179025,8.3486475 C6.6179025,8.6272875 6.8432625,8.8526475 7.1219025,8.8526475 C7.4005425,8.8526475 7.6259025,8.6272875 7.6259025,8.3486475 L7.6259025,5.2656075 C7.6259025,4.9869675 7.3998225,4.7616075 7.1219025,4.7616075 Z" id="形状"></path>
            </g>
        </g>
    </g>
</svg>